<svg xmlns="http://www.w3.org/2000/svg" xmlns:xlink="http://www.w3.org/1999/xlink" width="500" zoomAndPan="magnify" viewBox="0 0 375 374.999991" height="500" preserveAspectRatio="xMidYMid meet" version="1.0"><defs><g/><clipPath id="c5e1463575"><path d="M 33.507812 200.605469 L 350.742188 200.605469 L 350.742188 237.679688 L 33.507812 237.679688 Z M 33.507812 200.605469 " clip-rule="nonzero"/></clipPath></defs><g fill="#f4f4f4" fill-opacity="1"><g transform="translate(176.410085, 273.355588)"><g><path d="M 6.359375 0 L 6.359375 -1.8125 L 15.265625 -1.8125 C 19.390625 -1.8125 22.632812 -2.78125 25 -4.71875 C 27.363281 -6.664062 28.546875 -9.878906 28.546875 -14.359375 L 28.546875 -115.984375 C 28.546875 -120.222656 27.363281 -123.28125 25 -125.15625 C 22.632812 -127.039062 19.390625 -127.984375 15.265625 -127.984375 L 6.359375 -127.984375 L 6.359375 -129.796875 L 46.90625 -129.796875 L 90.71875 -23.265625 L 128.34375 -129.796875 L 164.890625 -129.796875 L 164.890625 -127.984375 L 161.078125 -127.984375 C 156.710938 -127.984375 153.378906 -127.015625 151.078125 -125.078125 C 148.773438 -123.140625 147.625 -119.867188 147.625 -115.265625 L 147.625 -14.546875 C 147.625 -9.941406 148.773438 -6.664062 151.078125 -4.71875 C 153.378906 -2.78125 156.710938 -1.8125 161.078125 -1.8125 L 164.890625 -1.8125 L 164.890625 0 L 113.8125 0 L 113.8125 -1.8125 L 114.71875 -1.8125 C 118.59375 -1.8125 121.648438 -2.75 123.890625 -4.625 C 126.128906 -6.507812 127.25 -9.695312 127.25 -14.1875 L 127.25 -121.078125 L 84.71875 0 L 79.078125 0 L 30.359375 -119.078125 L 30.359375 -14.546875 C 30.359375 -9.941406 31.566406 -6.664062 33.984375 -4.71875 C 36.410156 -2.78125 40.050781 -1.8125 44.90625 -1.8125 L 49.265625 -1.8125 L 49.265625 0 Z M 6.359375 0 "/></g></g></g><g fill="#f4f4f4" fill-opacity="1"><g transform="translate(53.149462, 216.929235)"><g><path d="M 6.546875 0 L 6.546875 -1.8125 L 10.359375 -1.8125 C 14.597656 -1.8125 17.867188 -2.78125 20.171875 -4.71875 C 22.484375 -6.664062 23.640625 -9.941406 23.640625 -14.546875 L 23.640625 -115.796875 C 23.640625 -120.160156 22.484375 -123.28125 20.171875 -125.15625 C 17.867188 -127.039062 14.597656 -127.984375 10.359375 -127.984375 L 6.546875 -127.984375 L 6.546875 -129.796875 L 62.171875 -129.796875 L 62.171875 -127.984375 L 58.359375 -127.984375 C 53.992188 -127.984375 50.660156 -127.015625 48.359375 -125.078125 C 46.054688 -123.140625 44.90625 -119.867188 44.90625 -115.265625 L 44.90625 -68.71875 L 100.53125 -68.71875 L 100.53125 -115.265625 C 100.53125 -119.867188 99.410156 -123.140625 97.171875 -125.078125 C 94.929688 -127.015625 91.628906 -127.984375 87.265625 -127.984375 L 83.4375 -127.984375 L 83.4375 -129.796875 L 139.078125 -129.796875 L 139.078125 -127.984375 L 135.25 -127.984375 C 131.007812 -127.984375 127.707031 -127.039062 125.34375 -125.15625 C 122.976562 -123.28125 121.796875 -120.160156 121.796875 -115.796875 L 121.796875 -14.546875 C 121.796875 -9.941406 122.976562 -6.664062 125.34375 -4.71875 C 127.707031 -2.78125 131.007812 -1.8125 135.25 -1.8125 L 139.078125 -1.8125 L 139.078125 0 L 83.4375 0 L 83.4375 -1.8125 L 87.265625 -1.8125 C 91.628906 -1.8125 94.929688 -2.78125 97.171875 -4.71875 C 99.410156 -6.664062 100.53125 -9.941406 100.53125 -14.546875 L 100.53125 -66.90625 L 44.90625 -66.90625 L 44.90625 -14.546875 C 44.90625 -9.941406 46.054688 -6.664062 48.359375 -4.71875 C 50.660156 -2.78125 53.992188 -1.8125 58.359375 -1.8125 L 62.171875 -1.8125 L 62.171875 0 Z M 6.546875 0 "/></g></g></g><g clip-path="url(#c5e1463575)"><path fill="#f4f4f4" d="M 33.507812 200.605469 L 350.742188 200.605469 L 350.742188 237.679688 L 33.507812 237.679688 Z M 33.507812 200.605469 " fill-opacity="1" fill-rule="nonzero"/></g><g fill="#000000" fill-opacity="1"><g transform="translate(109.281509, 227.124491)"><g><path d="M 20.441406 -7.320312 C 19.484375 -7.179688 18.558594 -7.070312 17.632812 -6.945312 C 17.507812 -6.929688 17.367188 -6.992188 17.273438 -7.085938 C 17.195312 -7.195312 17.164062 -7.335938 17.210938 -7.460938 L 20.550781 -18.449219 C 20.613281 -18.667969 20.488281 -18.886719 20.269531 -18.964844 C 20.046875 -19.03125 19.828125 -18.902344 19.75 -18.683594 L 16.207031 -7.023438 C 16.160156 -6.867188 16.035156 -6.757812 15.878906 -6.742188 C 15.503906 -6.707031 15.140625 -6.660156 14.78125 -6.628906 C 14.609375 -6.613281 14.453125 -6.707031 14.375 -6.867188 C 13.855469 -7.980469 13.011719 -8.902344 11.929688 -9.5 C 11.757812 -9.578125 11.582031 -9.671875 11.394531 -9.75 C 11.222656 -9.828125 11.113281 -10.03125 11.175781 -10.21875 L 13.277344 -17.777344 C 13.324219 -17.933594 13.292969 -18.074219 13.183594 -18.183594 C 13.074219 -18.292969 12.917969 -18.339844 12.773438 -18.292969 C 12.632812 -18.261719 12.523438 -18.152344 12.492188 -17.996094 L 10.390625 -10.457031 C 10.328125 -10.25 10.125 -10.140625 9.921875 -10.171875 C 7.070312 -10.691406 3.777344 -9.5 1.566406 -7.742188 C 0.894531 -7.210938 0.644531 -6.707031 0.847656 -6.238281 C 1.269531 -5.234375 4.5625 -5.09375 8.402344 -5.265625 C 8.527344 -5.28125 8.652344 -5.21875 8.730469 -5.125 C 8.808594 -5.03125 8.839844 -4.890625 8.808594 -4.765625 L 7.648438 -0.628906 C 7.601562 -0.40625 7.726562 -0.1875 7.945312 -0.140625 C 8.167969 -0.078125 8.386719 -0.203125 8.449219 -0.40625 L 9.75 -5.078125 C 9.796875 -5.25 9.9375 -5.359375 10.109375 -5.375 C 11.285156 -5.453125 12.476562 -5.566406 13.621094 -5.675781 C 13.808594 -5.691406 13.996094 -5.582031 14.042969 -5.390625 C 14.421875 -3.871094 14.515625 -2.289062 14.3125 -0.738281 C 14.28125 -0.515625 14.421875 -0.328125 14.625 -0.28125 C 14.84375 -0.234375 15.046875 -0.359375 15.109375 -0.5625 L 16.695312 -5.769531 C 16.742188 -5.925781 16.867188 -6.035156 17.023438 -6.050781 C 18.464844 -6.222656 19.6875 -6.378906 20.550781 -6.503906 C 20.691406 -6.519531 20.832031 -6.613281 20.878906 -6.757812 C 20.941406 -6.898438 20.910156 -7.054688 20.832031 -7.164062 C 20.738281 -7.289062 20.582031 -7.335938 20.441406 -7.320312 Z M 1.597656 -6.566406 C 1.597656 -6.566406 1.597656 -6.742188 2.070312 -7.117188 C 3.933594 -8.574219 6.207031 -9.40625 8.574219 -9.46875 C 8.917969 -9.484375 9.28125 -9.453125 9.640625 -9.390625 C 9.75 -9.375 9.84375 -9.3125 9.90625 -9.21875 C 9.96875 -9.121094 9.984375 -8.996094 9.953125 -8.886719 L 9.265625 -6.441406 C 9.21875 -6.269531 9.074219 -6.160156 8.902344 -6.144531 C 4.6875 -5.910156 1.816406 -6.019531 1.597656 -6.566406 Z M 10.628906 -6.253906 C 10.488281 -6.238281 10.359375 -6.300781 10.28125 -6.394531 C 10.203125 -6.503906 10.171875 -6.644531 10.21875 -6.757812 L 10.863281 -9.074219 C 11.082031 -8.996094 11.316406 -8.886719 11.535156 -8.777344 C 12.257812 -8.371094 12.886719 -7.789062 13.324219 -7.070312 C 13.386719 -6.960938 13.402344 -6.804688 13.339844 -6.675781 C 13.277344 -6.550781 13.152344 -6.472656 13.011719 -6.457031 C 12.195312 -6.378906 11.394531 -6.316406 10.628906 -6.253906 Z M 15.1875 -3.652344 C 15.140625 -4.230469 15.046875 -4.796875 14.90625 -5.359375 C 14.890625 -5.46875 14.90625 -5.582031 14.96875 -5.675781 C 15.03125 -5.769531 15.140625 -5.832031 15.25 -5.847656 L 15.265625 -5.847656 C 15.410156 -5.863281 15.535156 -5.800781 15.613281 -5.707031 C 15.707031 -5.597656 15.738281 -5.453125 15.691406 -5.328125 Z M 15.1875 -3.652344 "/></g></g></g><g fill="#000000" fill-opacity="1"><g transform="translate(130.104329, 227.124491)"><g><path d="M 10.15625 -4.230469 C 9.984375 -4.390625 9.734375 -4.390625 9.578125 -4.214844 C 9.515625 -4.167969 4.4375 1.003906 1.066406 -1.457031 C 0.03125 -2.210938 1.035156 -4.167969 1.050781 -4.183594 C 1.144531 -4.390625 1.066406 -4.625 0.863281 -4.734375 C 0.660156 -4.828125 0.421875 -4.765625 0.3125 -4.5625 C 0.25 -4.46875 -1.019531 -1.976562 0.578125 -0.800781 C 1.316406 -0.25 2.226562 0.046875 3.152344 0.03125 C 6.535156 0.03125 9.96875 -3.464844 10.15625 -3.652344 C 10.234375 -3.730469 10.28125 -3.824219 10.28125 -3.933594 C 10.265625 -4.042969 10.234375 -4.152344 10.15625 -4.230469 Z M 0.140625 -5.46875 C 0.203125 -5.46875 0.265625 -5.484375 0.328125 -5.519531 C 0.707031 -5.707031 1.035156 -5.957031 1.332031 -6.253906 C 1.488281 -6.425781 1.472656 -6.675781 1.316406 -6.835938 C 1.144531 -6.992188 0.894531 -6.992188 0.738281 -6.820312 C 0.5 -6.582031 0.234375 -6.394531 -0.0625 -6.238281 C -0.21875 -6.160156 -0.3125 -5.957031 -0.265625 -5.785156 C -0.21875 -5.597656 -0.046875 -5.46875 0.140625 -5.46875 Z M 0.140625 -5.46875 "/></g></g></g><g fill="#000000" fill-opacity="1"><g transform="translate(139.724507, 227.124491)"><g><path d="M 10.785156 -4.011719 C 10.707031 -4.089844 10.597656 -4.136719 10.488281 -4.136719 C 10.375 -4.136719 10.265625 -4.089844 10.1875 -4.011719 C 10.15625 -3.980469 6.035156 0.078125 3.074219 -0.816406 C 2.023438 -1.128906 1.441406 -2.132812 1.113281 -3.199219 C 1.019531 -3.542969 1.050781 -3.917969 1.207031 -4.246094 C 2.304688 -6.472656 5 -12.304688 3.667969 -13.730469 C 3.355469 -14.125 2.835938 -14.25 2.382812 -14.058594 C 0.800781 -13.371094 -0.25 -8.746094 -0.0625 -5.375 C -0.03125 -4.859375 0.03125 -4.34375 0.125 -3.824219 C 0.125 -3.761719 0.125 -3.714844 0.15625 -3.667969 C 0.5625 -1.691406 1.488281 -0.421875 2.835938 -0.03125 C 3.214844 0.078125 3.589844 0.140625 3.964844 0.140625 C 7.148438 0.140625 10.613281 -3.277344 10.769531 -3.433594 C 10.847656 -3.511719 10.894531 -3.605469 10.894531 -3.714844 C 10.894531 -3.839844 10.863281 -3.933594 10.785156 -4.011719 Z M 0.800781 -5.613281 C 0.3125 -8.230469 1.929688 -12.980469 2.710938 -13.308594 C 2.742188 -13.324219 2.773438 -13.339844 2.804688 -13.339844 C 2.867188 -13.339844 2.945312 -13.308594 3.054688 -13.183594 C 3.683594 -12.523438 1.898438 -6.851562 1.066406 -5.519531 C 0.988281 -5.375 0.832031 -5.453125 0.800781 -5.613281 Z M 0.800781 -5.613281 "/></g></g></g><g fill="#000000" fill-opacity="1"><g transform="translate(150.049744, 227.124491)"><g><path d="M 14.828125 -3.589844 C 14.75 -3.667969 14.65625 -3.699219 14.546875 -3.714844 C 14.4375 -3.714844 14.328125 -3.667969 14.25 -3.589844 C 11.882812 -1.269531 8.433594 -0.46875 6.992188 -0.925781 C 5.769531 -1.316406 5.203125 -2.429688 4.953125 -3.605469 C 4.90625 -3.871094 4.953125 -4.121094 5.09375 -4.34375 C 6.976562 -7.539062 8.964844 -12.148438 8.277344 -13.261719 C 8.121094 -13.511719 7.835938 -13.636719 7.539062 -13.589844 C 5.800781 -13.371094 4.3125 -9.765625 4.011719 -6.550781 C 3.949219 -5.863281 3.949219 -5.1875 3.996094 -4.515625 C 4.011719 -4.296875 3.964844 -4.074219 3.839844 -3.886719 C 3.746094 -3.730469 3.636719 -3.558594 3.527344 -3.402344 C 2.148438 -1.363281 1.207031 -0.707031 0.816406 -0.753906 C 0.609375 -0.769531 0.4375 -0.910156 0.390625 -1.097656 C 0.234375 -1.898438 0.421875 -2.710938 0.878906 -3.371094 C 1.207031 -3.761719 1.691406 -4.199219 2.164062 -4.105469 C 2.429688 -4.027344 2.648438 -3.824219 2.757812 -3.574219 C 2.804688 -3.355469 3.007812 -3.199219 3.230469 -3.230469 C 3.449219 -3.261719 3.605469 -3.464844 3.574219 -3.699219 C 3.417969 -4.261719 2.992188 -4.703125 2.429688 -4.875 C 1.945312 -5.03125 1.160156 -4.96875 0.25 -3.902344 C -0.25 -3.324219 -0.753906 -1.785156 -0.375 -0.800781 C -0.21875 -0.328125 0.203125 0 0.691406 0.0625 C 0.738281 0.0625 0.800781 0.0625 0.847656 0.0625 C 1.675781 0.0625 2.726562 -0.832031 3.964844 -2.601562 C 4.011719 -2.664062 4.105469 -2.710938 4.199219 -2.695312 C 4.296875 -2.695312 4.375 -2.632812 4.40625 -2.554688 C 4.75 -1.410156 5.628906 -0.515625 6.742188 -0.140625 C 8.589844 0.4375 12.351562 -0.59375 14.828125 -3.007812 C 14.984375 -3.167969 14.984375 -3.417969 14.828125 -3.589844 Z M 4.84375 -6.472656 C 5.09375 -9.34375 6.238281 -11.867188 7.210938 -12.585938 C 7.289062 -12.632812 7.398438 -12.648438 7.492188 -12.585938 C 7.570312 -12.539062 7.617188 -12.445312 7.617188 -12.351562 C 7.476562 -11.160156 6.628906 -9.011719 5.0625 -6.222656 C 4.8125 -5.816406 4.8125 -6.191406 4.84375 -6.472656 Z M 4.84375 -6.472656 "/></g></g></g><g fill="#000000" fill-opacity="1"><g transform="translate(164.307651, 227.124491)"><g><path d="M 13.105469 -3.792969 C 12.949219 -3.964844 12.679688 -3.980469 12.507812 -3.824219 C 12.460938 -3.777344 7.804688 0.40625 4.921875 -1.488281 C 3.777344 -2.242188 3.496094 -4.058594 3.496094 -4.074219 C 3.480469 -4.261719 3.339844 -4.40625 3.152344 -4.4375 C 2.976562 -4.453125 2.789062 -4.359375 2.710938 -4.199219 C 1.976562 -2.570312 0.675781 -0.5 0.3125 -0.738281 C 0.28125 -0.738281 0.21875 -0.800781 0.171875 -0.910156 C -0.015625 -1.425781 0.046875 -1.992188 0.3125 -2.476562 C 0.910156 -3.699219 2.007812 -4.578125 3.324219 -4.90625 C 3.464844 -4.9375 3.574219 -5.046875 3.621094 -5.1875 C 3.667969 -5.328125 3.621094 -5.484375 3.527344 -5.597656 C 3.417969 -5.691406 3.277344 -5.738281 3.136719 -5.707031 C 1.566406 -5.328125 0.265625 -4.261719 -0.4375 -2.820312 C -0.816406 -2.117188 -0.863281 -1.269531 -0.5625 -0.53125 C -0.421875 -0.171875 -0.078125 0.078125 0.3125 0.078125 L 0.328125 0.078125 C 1.097656 0.0625 2.054688 -0.894531 2.710938 -1.929688 C 2.789062 -2.054688 2.929688 -2.117188 3.074219 -2.101562 C 3.214844 -2.101562 3.339844 -2.023438 3.402344 -1.898438 C 3.667969 -1.457031 4.027344 -1.082031 4.46875 -0.816406 C 7.882812 1.457031 12.851562 -3.023438 13.074219 -3.214844 C 13.152344 -3.292969 13.199219 -3.402344 13.199219 -3.496094 C 13.214844 -3.605469 13.167969 -3.714844 13.105469 -3.792969 Z M 13.105469 -3.792969 "/></g></g></g><g fill="#000000" fill-opacity="1"><g transform="translate(176.967425, 227.124491)"><g/></g></g><g fill="#000000" fill-opacity="1"><g transform="translate(182.795935, 227.124491)"><g><path d="M 5.722656 0.0625 C 10.925781 -2.242188 14.109375 -9.421875 15.957031 -14.042969 C 15.972656 -14.125 16.050781 -14.15625 16.128906 -14.140625 C 16.207031 -14.125 16.253906 -14.042969 16.253906 -13.964844 C 15.691406 -9.21875 14.5625 -3.023438 14.28125 -1.535156 C 14.25 -1.363281 14.34375 -1.175781 14.515625 -1.097656 C 14.6875 -1.019531 14.890625 -1.066406 15 -1.207031 C 16.960938 -3.574219 20.472656 -9.296875 22.808594 -13.246094 C 22.855469 -13.308594 22.949219 -13.339844 23.011719 -13.308594 C 23.089844 -13.277344 23.121094 -13.199219 23.105469 -13.121094 C 21.191406 -6.144531 19.984375 -0.28125 22.273438 0.4375 C 22.492188 0.5 22.730469 0.375 22.792969 0.15625 C 22.855469 -0.0625 22.746094 -0.28125 22.523438 -0.359375 C 20.503906 -0.972656 23.402344 -11.175781 24.640625 -15.519531 C 24.8125 -16.175781 24.984375 -16.773438 25.144531 -17.320312 C 25.191406 -17.523438 25.078125 -17.726562 24.890625 -17.808594 C 24.6875 -17.886719 24.46875 -17.808594 24.375 -17.617188 C 23.839844 -16.585938 19.265625 -8.667969 16.066406 -4.027344 C 16.003906 -3.917969 15.863281 -3.886719 15.753906 -3.933594 C 15.644531 -3.980469 15.582031 -4.089844 15.597656 -4.214844 C 16.269531 -8.011719 17.289062 -14.296875 17.367188 -17.601562 C 17.382812 -17.792969 17.257812 -17.964844 17.070312 -18.011719 C 16.882812 -18.058594 16.695312 -17.964844 16.601562 -17.792969 C 16.363281 -17.335938 16.050781 -16.554688 15.660156 -15.550781 C 13.949219 -11.191406 10.753906 -3.054688 5.390625 -0.691406 C 3.824219 0 2.664062 -0.3125 2.085938 -0.832031 C 1.644531 -1.222656 1.488281 -1.832031 1.675781 -2.382812 C 2.054688 -3.496094 3.589844 -4.261719 5.769531 -4.453125 C 5.878906 -4.453125 5.972656 -4.5 6.050781 -4.59375 C 6.113281 -4.671875 6.160156 -4.78125 6.144531 -4.890625 C 6.128906 -5.109375 5.925781 -5.28125 5.707031 -5.265625 C 2.070312 -4.953125 1.128906 -3.339844 0.894531 -2.664062 C 0.59375 -1.785156 0.847656 -0.832031 1.535156 -0.21875 C 2.117188 0.28125 2.867188 0.5625 3.652344 0.53125 C 4.359375 0.515625 5.078125 0.359375 5.722656 0.0625 Z M 5.722656 0.0625 "/></g></g></g><g fill="#000000" fill-opacity="1"><g transform="translate(206.956048, 227.124491)"><g><path d="M 10.15625 -4.230469 C 9.984375 -4.390625 9.734375 -4.390625 9.578125 -4.214844 C 9.515625 -4.167969 4.4375 1.003906 1.066406 -1.457031 C 0.03125 -2.210938 1.035156 -4.167969 1.050781 -4.183594 C 1.144531 -4.390625 1.066406 -4.625 0.863281 -4.734375 C 0.660156 -4.828125 0.421875 -4.765625 0.3125 -4.5625 C 0.25 -4.46875 -1.019531 -1.976562 0.578125 -0.800781 C 1.316406 -0.25 2.226562 0.046875 3.152344 0.03125 C 6.535156 0.03125 9.96875 -3.464844 10.15625 -3.652344 C 10.234375 -3.730469 10.28125 -3.824219 10.28125 -3.933594 C 10.265625 -4.042969 10.234375 -4.152344 10.15625 -4.230469 Z M 0.140625 -5.46875 C 0.203125 -5.46875 0.265625 -5.484375 0.328125 -5.519531 C 0.707031 -5.707031 1.035156 -5.957031 1.332031 -6.253906 C 1.488281 -6.425781 1.472656 -6.675781 1.316406 -6.835938 C 1.144531 -6.992188 0.894531 -6.992188 0.738281 -6.820312 C 0.5 -6.582031 0.234375 -6.394531 -0.0625 -6.238281 C -0.21875 -6.160156 -0.3125 -5.957031 -0.265625 -5.785156 C -0.21875 -5.597656 -0.046875 -5.46875 0.140625 -5.46875 Z M 0.140625 -5.46875 "/></g></g></g><g fill="#000000" fill-opacity="1"><g transform="translate(216.576225, 227.124491)"><g><path d="M 10.753906 -4.261719 C 10.597656 -4.421875 10.328125 -4.421875 10.171875 -4.246094 C 10.140625 -4.214844 5.894531 0.0625 3.074219 -1.003906 C 1.816406 -1.488281 1.285156 -2.945312 1.082031 -4.390625 C 1.363281 -5.078125 1.832031 -6.222656 2.273438 -7.507812 C 2.320312 -7.664062 2.367188 -7.679688 2.554688 -7.695312 C 4.671875 -7.851562 6.773438 -7.929688 8.011719 -7.929688 C 8.246094 -7.929688 8.417969 -8.121094 8.417969 -8.339844 C 8.417969 -8.574219 8.246094 -8.746094 8.011719 -8.746094 C 6.820312 -8.746094 4.859375 -8.652344 2.851562 -8.542969 C 2.773438 -8.527344 2.632812 -8.574219 2.742188 -8.855469 C 3.496094 -11.003906 4.027344 -13.183594 3.699219 -13.839844 C 3.371094 -14.5 2.929688 -14.515625 2.710938 -14.46875 C 1.550781 -14.25 0.707031 -11.238281 0.328125 -8.777344 C 0.296875 -8.558594 0.1875 -8.371094 -0.015625 -8.355469 C -2.476562 -8.167969 -4.5 -8.027344 -4.53125 -8.027344 C -4.765625 -8.011719 -4.9375 -7.820312 -4.921875 -7.585938 C -4.921875 -7.367188 -4.734375 -7.179688 -4.5 -7.195312 L -4.46875 -7.195312 C -4.421875 -7.195312 -2.523438 -7.335938 -0.15625 -7.507812 C -0.078125 -7.523438 0 -7.507812 0.0625 -7.445312 C 0.125 -7.398438 0.171875 -7.320312 0.171875 -7.242188 C -0.0625 -3.511719 0.878906 -0.957031 2.773438 -0.234375 C 3.183594 -0.09375 3.605469 -0.015625 4.042969 -0.015625 C 7.148438 -0.015625 10.597656 -3.511719 10.769531 -3.667969 C 10.847656 -3.746094 10.878906 -3.855469 10.878906 -3.964844 C 10.878906 -4.074219 10.832031 -4.183594 10.753906 -4.261719 Z M 1.160156 -8.808594 C 1.519531 -11.191406 2.242188 -13.074219 2.664062 -13.558594 C 2.710938 -13.589844 2.773438 -13.605469 2.835938 -13.589844 C 2.882812 -13.574219 2.929688 -13.542969 2.960938 -13.480469 C 3.152344 -13.074219 2.617188 -11.082031 1.816406 -8.714844 C 1.785156 -8.574219 1.675781 -8.464844 1.519531 -8.449219 C 1.441406 -8.433594 1.363281 -8.433594 1.269531 -8.433594 C 1.113281 -8.433594 1.144531 -8.683594 1.160156 -8.792969 Z M 0.972656 -6.347656 C 0.816406 -6.347656 0.878906 -7.445312 1.019531 -7.601562 C 1.144531 -7.679688 1.300781 -7.695312 1.425781 -7.617188 C 1.566406 -7.492188 1.144531 -6.347656 0.972656 -6.347656 Z M 0.972656 -6.347656 "/></g></g></g><g fill="#000000" fill-opacity="1"><g transform="translate(226.5881, 227.124491)"><g><path d="M 13.152344 -4.027344 C 13.074219 -4.105469 12.980469 -4.167969 12.871094 -4.167969 C 12.757812 -4.183594 12.648438 -4.152344 12.570312 -4.089844 C 12.507812 -4.042969 6.472656 0.753906 1.441406 -1.316406 C 0.421875 -1.738281 0.375 -2.289062 0.40625 -2.585938 C 0.40625 -2.632812 0.421875 -2.679688 0.46875 -2.710938 C 0.5 -2.742188 0.5625 -2.742188 0.609375 -2.726562 C 1.628906 -2.664062 2.648438 -2.929688 3.527344 -3.480469 C 4.277344 -3.964844 4.40625 -4.5 4.359375 -4.84375 C 4.328125 -5.40625 3.871094 -5.863281 3.292969 -5.878906 C 2.054688 -5.941406 -0.015625 -4.46875 -0.359375 -2.898438 C -0.5 -2.320312 -0.484375 -1.222656 1.128906 -0.5625 C 2.117188 -0.15625 3.152344 0.03125 4.199219 0.03125 C 8.699219 0.03125 12.871094 -3.277344 13.089844 -3.449219 C 13.167969 -3.511719 13.230469 -3.621094 13.230469 -3.714844 C 13.246094 -3.824219 13.214844 -3.933594 13.152344 -4.027344 Z M 0.972656 -3.683594 C 1.582031 -4.53125 2.601562 -5.09375 3.246094 -5.046875 C 3.417969 -5.046875 3.511719 -4.984375 3.542969 -4.75 C 3.558594 -4.59375 3.386719 -4.375 3.074219 -4.167969 C 2.429688 -3.746094 0.5 -3.054688 0.972656 -3.683594 Z M 0.972656 -3.683594 "/></g></g></g><g fill="#000000" fill-opacity="1"><g transform="translate(239.138194, 227.124491)"><g><path d="M 13.871094 -3.964844 C 13.792969 -4.042969 13.683594 -4.089844 13.589844 -4.089844 C 13.480469 -4.089844 13.371094 -4.042969 13.292969 -3.964844 C 11.976562 -2.648438 9.28125 -1.300781 7.117188 -1.347656 C 6.253906 -1.316406 5.40625 -1.644531 4.796875 -2.273438 C 4.78125 -2.289062 4.75 -2.320312 4.734375 -2.351562 C 4.71875 -2.398438 4.71875 -2.445312 4.734375 -2.507812 C 5.046875 -3.054688 5.234375 -3.683594 5.25 -4.328125 C 5.25 -4.640625 5.0625 -4.921875 4.765625 -5.046875 C 4.359375 -5.265625 3.824219 -5.15625 3.558594 -4.765625 C 3.199219 -4.246094 3.324219 -3.277344 3.683594 -2.507812 C 3.699219 -2.445312 3.699219 -2.398438 3.683594 -2.335938 C 3.433594 -1.945312 3.136719 -1.597656 2.804688 -1.285156 C 2.476562 -0.988281 2.007812 -0.691406 1.644531 -0.894531 C 0.847656 -1.660156 0.832031 -3.558594 0.894531 -4.214844 C 0.910156 -4.4375 0.753906 -4.640625 0.53125 -4.65625 C 0.3125 -4.6875 0.109375 -4.53125 0.078125 -4.296875 C 0.078125 -4.183594 -0.1875 -1.441406 1.113281 -0.25 C 1.128906 -0.234375 1.160156 -0.21875 1.175781 -0.21875 C 1.394531 -0.078125 1.644531 0 1.898438 0 C 2.242188 0 2.570312 -0.109375 2.851562 -0.296875 C 3.292969 -0.59375 3.683594 -0.972656 4.011719 -1.394531 C 4.074219 -1.457031 4.167969 -1.503906 4.261719 -1.503906 C 4.359375 -1.503906 4.453125 -1.472656 4.515625 -1.394531 C 5.234375 -0.816406 6.160156 -0.5 7.101562 -0.515625 C 9.609375 -0.453125 12.445312 -1.960938 13.871094 -3.386719 C 13.949219 -3.464844 13.996094 -3.574219 13.996094 -3.683594 C 13.996094 -3.792969 13.949219 -3.886719 13.871094 -3.964844 Z M 4.277344 -3.511719 C 4.261719 -3.480469 4.214844 -3.480469 4.214844 -3.511719 C 4.136719 -3.761719 4.136719 -4.042969 4.230469 -4.296875 C 4.261719 -4.328125 4.296875 -4.359375 4.34375 -4.359375 C 4.375 -4.34375 4.40625 -4.328125 4.4375 -4.296875 C 4.4375 -4.011719 4.390625 -3.746094 4.277344 -3.511719 Z M 4.277344 -3.511719 "/></g></g></g><g fill="#000000" fill-opacity="1"><g transform="translate(252.299345, 227.124491)"><g><path d="M 13.105469 -3.792969 C 12.949219 -3.964844 12.679688 -3.980469 12.507812 -3.824219 C 12.460938 -3.777344 7.804688 0.40625 4.921875 -1.488281 C 3.777344 -2.242188 3.496094 -4.058594 3.496094 -4.074219 C 3.480469 -4.261719 3.339844 -4.40625 3.152344 -4.4375 C 2.976562 -4.453125 2.789062 -4.359375 2.710938 -4.199219 C 1.976562 -2.570312 0.675781 -0.5 0.3125 -0.738281 C 0.28125 -0.738281 0.21875 -0.800781 0.171875 -0.910156 C -0.015625 -1.425781 0.046875 -1.992188 0.3125 -2.476562 C 0.910156 -3.699219 2.007812 -4.578125 3.324219 -4.90625 C 3.464844 -4.9375 3.574219 -5.046875 3.621094 -5.1875 C 3.667969 -5.328125 3.621094 -5.484375 3.527344 -5.597656 C 3.417969 -5.691406 3.277344 -5.738281 3.136719 -5.707031 C 1.566406 -5.328125 0.265625 -4.261719 -0.4375 -2.820312 C -0.816406 -2.117188 -0.863281 -1.269531 -0.5625 -0.53125 C -0.421875 -0.171875 -0.078125 0.078125 0.3125 0.078125 L 0.328125 0.078125 C 1.097656 0.0625 2.054688 -0.894531 2.710938 -1.929688 C 2.789062 -2.054688 2.929688 -2.117188 3.074219 -2.101562 C 3.214844 -2.101562 3.339844 -2.023438 3.402344 -1.898438 C 3.667969 -1.457031 4.027344 -1.082031 4.46875 -0.816406 C 7.882812 1.457031 12.851562 -3.023438 13.074219 -3.214844 C 13.152344 -3.292969 13.199219 -3.402344 13.199219 -3.496094 C 13.214844 -3.605469 13.167969 -3.714844 13.105469 -3.792969 Z M 13.105469 -3.792969 "/></g></g></g></svg>